<mxfile>
    <diagram id="d-bmqESFF2isHBAvMT5q" name="系统架构">
        <mxGraphModel dx="2590" dy="1160" grid="1" gridSize="10" guides="1" tooltips="1" connect="1" arrows="1" fold="1" page="1" pageScale="1" pageWidth="850" pageHeight="1100" math="0" shadow="0">
            <root>
                <mxCell id="0"/>
                <mxCell id="1" parent="0"/>
                <mxCell id="2" value="系统架构" style="rounded=1;whiteSpace=wrap;html=1;" parent="1" vertex="1">
                    <mxGeometry x="10" y="420" width="120" height="60" as="geometry"/>
                </mxCell>
            </root>
        </mxGraphModel>
    </diagram>
    <diagram id="VMx8hQefgha2cywR5gmB" name="系统架构师">
        <mxGraphModel dx="2590" dy="1160" grid="1" gridSize="10" guides="1" tooltips="1" connect="1" arrows="1" fold="1" page="1" pageScale="1" pageWidth="850" pageHeight="1100" math="0" shadow="0">
            <root>
                <mxCell id="D6K7rUNQ_35-cnONnwiE-0"/>
                <mxCell id="D6K7rUNQ_35-cnONnwiE-1" parent="D6K7rUNQ_35-cnONnwiE-0"/>
            </root>
        </mxGraphModel>
    </diagram>
</mxfile>